PathFileType	4	(X/Y/Z)	DARI_DATA/Captury_Subj5_bilateral_squat03.trc
DataRate	CameraRate	NumFrames	NumMarkers	Units	OrigDataRate	OrigDataStartFrame	OrigNumFrames
60	60	4	47	mm	59.99879837036133	89	236
Frame#	Time		LeftUpLeg_		RightUpLeg_		LeftLeg_		RightLeg_		LeftFoot_		RightFoot_		LeftToeBase_		RightToeBase_		Knee_Lateral_r		Knee_Lateral_l		Ankle_Lateral_r		Ankle_Lateral_l		LeftArm_		LeftForeArm_		LeftHand_		LeftHandEE		RightArm_		RightForeArm_		RightHand_		RightHandEE		Spine_		Spine1_		Spine2_		Spine3_		Spine4_		Spine5_		Spine_x		Spine_y		Spine_z		RASI		LASI		RIPS		LIPS		RTHI		LTHI		RTIB		LTIB		RTOE		LTOE		RHEE		LHEE		RHipAngles		LHipAngles		RKneeAngles		LKneeAngles		RAnkleAngles		LAnkleAngles
			X1	Y1	Z1	X2	Y2	Z2	X3	Y3	Z3	X4	Y4	Z4	X5	Y5	Z5	X6	Y6	Z6	X7	Y7	Z7	X8	Y8	Z8	X9	Y9	Z9	X10	Y10	Z10	X11	Y11	Z11	X12	Y12	Z12	X13	Y13	Z13	X14	Y14	Z14	X15	Y15	Z15	X16	Y16	Z16	X17	Y17	Z17	X18	Y18	Z18	X19	Y19	Z19	X20	Y20	Z20	X21	Y21	Z21	X22	Y22	Z22	X23	Y23	Z23	X24	Y24	Z24	X25	Y25	Z25	X26	Y26	Z26	X27	Y27	Z27	X28	Y28	Z28	X29	Y29	Z29	X30	Y30	Z30	X31	Y31	Z31	X32	Y32	Z32	X33	Y33	Z33	X34	Y34	Z34	X35	Y35	Z35	X36	Y36	Z36	X37	Y37	Z37	X38	Y38	Z38	X39	Y39	Z39	X40	Y40	Z40	X41	Y41	Z41	X42	Y42	Z42	X43	Y43	Z43	X44	Y44	Z44	X45	Y45	Z45	X46	Y46	Z46	X47	Y47	Z47

89	1.46667	-99.66661	821.06647	250.45833	91.39893	815.04645	239.39523	-205.28235	492.36646	-62.72441	176.74985	501.94666	-95.21719	-181.66302	86.78149	81.08557	186.00941	98.96555	57.29146	-214.13423	34.84015	-51.17795	200.75240	39.22771	-74.84468	229.56554	503.26068	-86.77316	-256.91690	491.75092	-48.72368	235.48190	101.72686	86.90408	-227.67682	85.99014	115.93040	-158.27005	1337.73694	21.07196	-243.79202	1399.14648	-298.37640	-240.54837	1450.82825	-582.82367	-239.72948	1457.35132	-688.13391	152.18518	1329.25464	11.75860	256.20416	1358.34143	-306.77930	242.84781	1418.61731	-589.23315	243.38887	1439.89221	-692.57990	-2.64680	920.87665	214.65831	-3.35721	1009.40131	157.56587	-2.32360	1083.02417	145.18828	-0.25836	1179.90845	156.02380	0.04916	1318.96021	113.82300	1663134.00000	0.00000	1663136.00000	50.93901	919.18829	211.55557	-2.59803	968.39624	189.64233	0.88523	945.83563	262.07654	149.60451	827.39819	106.55595	-171.91032	837.52844	125.17233	42.31180	905.98956	255.63664	-43.42549	908.69098	260.60101	204.48132	669.95264	99.08986	-220.09447	666.17188	127.86042	226.13184	317.28882	-35.53047	-234.88123	242.59460	13.38036	211.06459	14.97823	-152.68073	-231.54367	12.78171	-128.39948	165.54292	28.44011	113.05684	-185.76775	13.56425	136.98618	-75.08380	11.26404	6.10537	-72.40958	6.57331	10.15294	-62.08434	0.01113	0.04753	-58.99517	-0.49865	0.03686	-11.54965	0.34535	-9.80880	-14.05116	-5.22493	11.65587
90	1.48333	-97.35962	811.76831	255.02451	93.73700	806.46887	244.13112	-207.06606	491.86215	-65.76566	176.76657	500.84634	-97.89622	-181.27217	87.51193	81.11496	185.71582	98.93488	57.42711	-214.44565	35.53373	-50.95967	200.93484	39.53584	-74.80772	229.64436	502.02560	-89.82946	-258.57651	491.07187	-51.32355	235.40546	101.52258	86.68973	-227.02704	86.69761	116.29858	-158.52800	1323.56970	18.69215	-243.24876	1385.93359	-300.78482	-239.49017	1437.67151	-585.21558	-238.46381	1444.42749	-690.50934	151.97786	1315.19727	9.24628	256.17682	1344.84570	-309.18103	241.50082	1405.95142	-591.39099	240.87158	1427.73523	-694.63123	-0.82302	911.30188	217.20531	-1.94103	998.04102	158.92487	-1.25758	1070.66162	145.70062	0.34894	1166.85950	155.47495	-0.02455	1304.57227	111.81720	1663134.00000	0.00000	1663136.00000	52.77150	909.81561	214.15018	-1.00110	958.29761	191.21910	2.56977	937.24615	264.10199	151.92467	816.37946	111.07962	-169.64244	825.29694	129.41040	44.19512	897.48199	258.49094	-41.55611	899.85999	263.37915	205.85455	664.58722	99.82350	-219.49031	660.62427	129.46570	225.93381	316.44965	-37.23318	-235.41422	242.62923	12.54991	211.52132	15.54777	-152.68793	-232.27129	13.50853	-128.09570	165.20515	28.24367	112.96587	-184.93097	14.28250	137.03055	-77.46121	10.80741	5.82381	-75.23053	7.26395	10.32664	-63.76654	0.02372	0.05125	-61.00011	-0.32971	0.00850	-12.12237	0.90990	-9.64463	-14.52260	-5.30533	11.59892
91	1.50000	-95.83157	802.87805	259.73734	95.25131	797.71405	248.54358	-209.46193	491.33267	-67.84381	176.79822	499.71655	-100.49701	-181.06622	87.87384	80.99504	185.30223	98.84012	57.50342	-214.95470	35.98469	-50.93303	201.36211	39.69660	-74.74649	229.72067	500.82227	-92.71795	-260.85492	490.38809	-52.99825	235.15767	101.27435	86.49593	-226.56065	86.92824	116.51150	-158.12756	1310.04089	16.41246	-242.39029	1372.62415	-303.14270	-239.07159	1424.31030	-587.58826	-236.08086	1431.43518	-692.82019	152.35297	1301.02100	6.21548	256.24136	1331.31970	-312.25211	240.17799	1393.30579	-594.19446	238.74501	1415.18848	-697.40576	0.43111	901.78094	219.63419	-0.94085	986.73969	160.16893	-0.36816	1058.37964	146.08940	1.19004	1153.91370	154.78291	0.63523	1290.30042	109.65268	1663134.00000	0.00000	1663136.00000	54.02178	900.33264	216.49481	0.10663	948.22192	192.67047	3.87319	928.70770	265.97009	153.13681	804.94727	115.18811	-168.40720	813.63702	134.02434	45.56358	888.91376	261.10248	-40.18149	891.23102	266.12546	206.76489	659.20001	100.54353	-219.59988	655.31946	131.54486	225.70360	315.57822	-38.84538	-236.29242	242.41588	11.99709	212.43564	15.92468	-152.62524	-233.21582	14.04934	-127.99276	164.61736	28.01563	112.80730	-184.16933	14.56002	136.83362	-79.87675	10.68291	5.53711	-77.91425	7.70632	10.47686	-65.41958	-0.01835	0.03628	-62.76254	-0.28369	-0.01336	-12.63721	1.52871	-9.47097	-14.91180	-5.35276	11.55794
92	1.51667	-94.80930	793.73297	263.57956	96.34783	788.92316	253.55681	-211.25528	489.65652	-69.97647	176.62402	499.01852	-102.52299	-180.97015	87.19989	81.18506	184.94720	98.89813	57.39177	-215.07367	35.13714	-50.61913	201.94833	39.97860	-74.84047	229.57993	500.00739	-94.95877	-262.60687	488.70145	-54.98904	234.94406	101.21280	86.14960	-226.34338	86.19374	116.85455	-157.54510	1296.53186	13.90169	-241.61084	1359.21118	-305.68658	-238.34998	1411.04443	-590.10608	-234.09065	1418.29944	-695.28540	152.88820	1287.24353	3.17798	256.12259	1318.08582	-315.45004	239.88138	1380.44397	-597.30017	236.51813	1402.53479	-700.42224	1.38050	892.04926	221.89040	0.11523	975.38013	161.18610	0.61290	1046.21509	146.22820	2.01275	1141.25745	153.85921	1.36441	1276.52014	107.32390	1663134.00000	0.00000	1663136.00000	54.99199	890.70032	219.07944	1.06824	937.89844	193.93208	4.48270	919.97675	267.65442	154.95703	793.46686	120.39884	-166.71191	801.56061	137.26459	46.31838	880.21704	263.87503	-39.46001	882.37537	268.37256	207.33432	653.93103	101.95018	-219.82657	649.55823	132.77524	225.39484	315.07028	-40.20097	-236.95811	241.13181	11.44118	213.55655	16.41120	-152.70352	-233.47330	13.13949	-127.62813	164.15331	27.93903	112.48178	-183.78548	13.92379	137.08835	-82.35217	10.20340	5.10719	-80.46118	8.38454	10.57167	-67.01092	0.02628	0.00812	-64.37285	-0.37442	-0.00438	-13.02726	2.12305	-9.26079	-15.22080	-5.40259	11.55324
